<svg width="185" height="14" viewBox="0 0 185 14" xmlns="http://www.w3.org/2000/svg">
    <g fill="#0B00DC" fill-rule="nonzero">
        <path d="M2.954 1.04c0-.111.043-.169.2-.204.298-.065.668-.08.857-.08 1.728 0 2.387 1.588 2.387 3.068 0 .732-.262 1.376-.636 1.796-.37.436-.617.478-1.597.478-.663 0-.98-.062-1.08-.073-.104-.035-.127-.081-.127-.208V1.04h-.004zM96.403 11.33c.046 1.468.224 1.93.686 2.07.355.092.74.111.891.111.089 0 .147.035.147.112 0 .104-.108.135-.316.135-1.019 0-1.724-.05-1.879-.05-.162 0-.902.05-1.704.05-.174 0-.282-.015-.282-.135 0-.077.058-.112.14-.112.142 0 .462-.019.732-.111.436-.128.52-.648.52-2.275L95.37.887c0-.687.043-.887.185-.887.143 0 .444.39.621.57.274.301 2.908 3.184 5.635 6.13 1.758 1.888 3.687 4.074 4.254 4.66l-.209-9.078c-.015-1.16-.135-1.553-.682-1.696a4.84 4.84 0 0 0-.868-.085c-.135 0-.147-.062-.147-.127 0-.112.147-.127.355-.127.795 0 1.647.061 1.855.061.193 0 .768-.061 1.497-.061.2 0 .32.019.32.127 0 .065-.07.127-.197.127-.085 0-.208 0-.42.05-.587.127-.656.517-.656 1.592l-.035 10.47c0 1.179-.046 1.268-.162 1.268-.142 0-.343-.197-1.3-1.141a241.118 241.118 0 0 1-4.612-4.857c-2.051-2.217-4.053-4.48-4.628-5.127l.228 8.569v.004zm-17.66-5.894c0-2.79 0-3.288-.034-3.866-.035-.605-.181-.887-.768-1.014a3.338 3.338 0 0 0-.593-.05c-.074 0-.15-.035-.15-.116 0-.104.096-.142.284-.142.799 0 1.91.061 2.002.061.12 0 3.637 0 4.057-.023.332-.019.625-.046.768-.085.092-.011.154-.096.243-.096.054 0 .073.085.073.162 0 .123-.085.34-.147.833-.015.185-.05.97-.077 1.187-.023.088-.062.2-.127.2-.108 0-.154-.088-.154-.239 0-.12-.012-.424-.097-.643-.12-.286-.3-.51-1.26-.606-.306-.038-2.23-.057-2.423-.057-.073 0-.108.057-.108.185v4.93c0 .12.004.192.108.192.228 0 2.399 0 2.816-.054.416-.03.67-.061.825-.25.123-.143.204-.231.274-.231.054 0 .084.034.084.15 0 .104-.084.405-.142.998-.031.351-.077 1.014-.077 1.141 0 .135 0 .34-.116.34-.093 0-.131-.082-.131-.159 0-.18 0-.366-.07-.593-.065-.243-.231-.555-.921-.625-.482-.061-2.23-.096-2.53-.096l-.12 1.704c0 .605-.023 2.675 0 3.06.05 1.234.324 1.465 2.056 1.465.447 0 1.23 0 1.693-.193.455-.2.679-.562.806-1.295.027-.193.065-.262.162-.262.096 0 .096.143.096.262 0 .154-.142 1.369-.231 1.739-.12.458-.27.458-.964.458-2.665 0-3.853-.104-4.37-.104-.035 0-.347.02-.706.02-.35.015-.763.03-1.018.03-.216 0-.285-.03-.285-.135 0-.061.03-.111.135-.111.154 0 .366-.035.528-.074.363-.077.444-.458.513-.983.093-.74.093-2.158.093-3.877V5.435h.004zm-11.446 6.013c.07.648.2 1.654.949 1.9.517.162.976.162 1.153.162.085 0 .143.024.143.085 0 .108-.15.158-.367.158-.39 0-2.31-.05-2.958-.104-.412-.03-.497-.088-.497-.177.212-.147.224-.451.189-.771l-.856-9.22-4.389 9.297c-.374.779-.428.94-.582.94-.12 0-.212-.18-.56-.817a423.02 423.02 0 0 1-2.07-4.155c-.155-.312-2.145-4.598-2.342-5.084l-.775 8.299c-.015.285-.015.601-.015.906 0 .266.193.49.463.543.293.077.563.097.667.097.07 0 .146.034.146.084 0 .128-.111.158-.324.158-.655 0-1.507-.05-1.646-.05-.166 0-1.018.05-1.485.05-.174 0-.3-.03-.3-.158 0-.054.08-.084.18-.084.128 0 .274 0 .529-.05.582-.112.64-.802.705-1.485L54.532.324c.039-.2.085-.324.189-.324.112 0 .181.07.274.266l5.414 11.24L65.62.286c.082-.163.14-.286.27-.286.132 0 .182.143.224.482l1.184 10.962v.004zM39.322 9.132c0-.96-.174-1.353-.413-1.874-.112-.289-2.491-4.224-3.116-5.146-.444-.663-.88-1.11-1.207-1.326-.262-.18-.602-.281-.76-.281-.093 0-.177-.035-.177-.127 0-.066.07-.127.239-.127.343 0 1.658.061 1.75.061.112 0 .799-.061 1.485-.061.197 0 .228.061.228.127 0 .065-.104.092-.262.162a.335.335 0 0 0-.22.323c0 .209.073.424.22.69.289.52 2.935 5.13 3.262 5.64.332-.744 2.577-4.653 2.935-5.243.232-.381.301-.678.301-.91 0-.254-.07-.45-.281-.5-.166-.054-.274-.097-.274-.185 0-.066.108-.104.285-.104.459 0 1.03.061 1.172.061.105 0 1.381-.061 1.713-.061.127 0 .223.038.223.104 0 .092-.088.154-.223.154-.19 0-.529.065-.81.25-.355.209-.548.42-.941.902-.582.721-3.058 4.919-3.378 5.694-.263.64-.263 1.19-.263 1.78v1.535c0 .296 0 1.048.05 1.788.043.524.201.906.725.983.247.039.64.073.799.073.108 0 .135.05.135.112 0 .085-.081.135-.278.135-.98 0-2.094-.05-2.183-.05-.092 0-1.2.05-1.735.05-.19 0-.286-.03-.286-.135 0-.062.043-.112.15-.112.167 0 .375-.034.537-.073.343-.077.517-.459.544-.983.05-.74.05-1.492.05-1.788V9.135l.004-.003zM19.368 5.435c0-2.79 0-3.288-.039-3.866-.035-.605-.173-.887-.76-1.014a3.347 3.347 0 0 0-.605-.05c-.066 0-.135-.035-.135-.116 0-.104.093-.142.281-.142.799 0 1.917.061 1.994.061.131 0 3.66 0 4.073-.023.335-.019.605-.046.744-.085.097-.011.17-.096.25-.096.063 0 .078.085.078.162 0 .123-.089.34-.15.833-.008.185-.047.97-.081 1.187-.024.088-.05.2-.124.2-.115 0-.139-.088-.139-.239 0-.12-.023-.424-.104-.643-.135-.286-.312-.51-1.269-.606C23.09.96 21.15.941 20.952.941c-.057 0-.1.057-.1.185v4.93c0 .12.024.192.1.192.24 0 2.419 0 2.824-.054.428-.03.663-.061.833-.25.123-.143.197-.231.266-.231.046 0 .092.034.092.15 0 .104-.092.405-.15.998-.038.351-.062 1.014-.062 1.141 0 .135 0 .34-.13.34-.093 0-.116-.082-.116-.159 0-.18 0-.366-.074-.593-.077-.243-.235-.555-.918-.625-.486-.061-2.24-.096-2.541-.096l-.127 1.704c0 .605-.016 2.675 0 3.06.061 1.234.324 1.465 2.063 1.465.455 0 1.238 0 1.697-.193.47-.2.675-.562.806-1.295.027-.193.065-.262.15-.262.112 0 .112.143.112.262 0 .154-.135 1.369-.231 1.739-.128.458-.274.458-.957.458-2.68 0-3.864-.104-4.385-.104-.027 0-.331.02-.702.02-.347.015-.755.03-1.03.03-.192 0-.28-.03-.28-.135 0-.061.042-.111.134-.111.174 0 .382-.035.532-.074.347-.077.448-.458.521-.983.085-.74.085-2.158.085-3.877V5.435h.004zM2.954 6.703c.367-.127 1.257-.127 1.485-.092.424.05.868.108 1.477.52 1.365.952 1.716 2.494 1.716 3.577 0 2.012-1.55 2.533-2.51 2.533-.313 0-1.073-.035-1.555-.262-.547-.274-.547-.525-.605-1.404-.008-.262-.008-2.486-.008-3.862v-1.01zM1.527 8.577c0 1.715 0 3.133-.08 3.877-.078.525-.163.906-.518.983-.158.039-.37.073-.528.073-.108 0-.139.05-.139.112 0 .104.077.135.282.135.536 0 1.647-.05 1.731-.05.143 0 1.956.104 2.36.104 3.036 0 4.52-1.985 4.52-3.893 0-2.093-1.747-3.361-3.07-3.774.838-.87 1.67-1.754 1.67-3.218 0-.887-.64-2.675-3.54-2.675-.821 0-1.508.061-1.94.061C2.191.312 1.084.251.282.251.077.25 0 .289 0 .393 0 .474.066.51.131.51c.166 0 .463.015.61.05.582.127.724.409.755 1.014.035.582.035 1.075.035 3.866V8.58l-.004-.003zM133.611 12.08c-1.728-1.545-2.152-3.577-2.152-5.265 0-1.191.409-3.273 1.994-4.857 1.068-1.068 2.688-1.904 5.43-1.904.714 0 1.709.054 2.58.212.675.123 1.246.231 1.817.266.196.02.23.089.23.197 0 .142-.053.354-.088.994-.034.586-.034 1.565-.054 1.831-.019.266-.054.374-.162.374-.123 0-.142-.123-.142-.374 0-.694-.286-1.422-.749-1.816-.624-.532-1.993-1.013-3.56-1.013-2.367 0-3.47.694-4.091 1.299-1.3 1.245-1.6 2.829-1.6 4.64 0 3.397 2.614 6.511 6.425 6.511 1.334 0 2.383-.162 3.096-.89.374-.393.606-1.176.66-1.496.035-.196.07-.266.177-.266.089 0 .124.123.124.266 0 .123-.212 1.673-.394 2.278-.108.34-.142.374-.463.517-.713.285-2.063.408-3.204.408-2.67 0-4.466-.659-5.874-1.92v.008zM155.59.054c4.003 0 6.996 2.525 6.996 6.672 0 4.148-2.812 7.274-7.1 7.274-4.875 0-6.908-3.79-6.908-6.992 0-2.884 2.102-6.954 7.012-6.954zm.374 13.271c1.6 0 4.913-.925 4.913-6.101 0-4.271-2.6-6.565-5.41-6.565-2.974 0-5.2 1.958-5.2 5.851 0 4.144 2.492 6.812 5.697 6.812v.003zM182.74 11.456c.07.64.197 1.638.96 1.885.517.162.98.162 1.157.162.089 0 .143.019.143.088 0 .108-.162.162-.374.162-.393 0-2.314-.054-2.974-.108-.408-.034-.497-.088-.497-.177 0-.07.035-.108.123-.123.09-.016.108-.32.07-.64l-.856-9.178h-.054l-4.362 9.251c-.374.783-.428.944-.586.944-.124 0-.212-.177-.552-.817-.463-.87-1.994-3.947-2.082-4.128-.162-.32-2.152-4.59-2.349-5.069h-.07l-.713 8.253c-.02.285-.02.605-.02.906 0 .266.198.497.464.551.3.07.57.089.675.089.069 0 .142.034.142.088 0 .124-.108.162-.32.162-.66 0-1.512-.054-1.654-.054-.162 0-1.015.054-1.497.054-.177 0-.3-.035-.3-.162 0-.054.088-.088.177-.088.143 0 .266 0 .532-.054.586-.108.64-.802.714-1.477l1.28-11.598c.02-.197.089-.32.197-.32.108 0 .177.07.266.266l5.445 11.19L181.066.339c.07-.162.143-.285.266-.285.124 0 .178.143.213.482l1.191 10.924.004-.004z"/>
        <ellipse cx="119.859" cy="7" rx="6.988" ry="6.985"/>
    </g>
</svg>
